<svg width="24" height="24" viewBox="0 0 24 24" fill="none" xmlns="http://www.w3.org/2000/svg">
<path fill-rule="evenodd" clip-rule="evenodd" d="M7.35539 9.60539C7.74592 9.21487 8.37908 9.21487 8.76961 9.60539L12 12.8358L15.2304 9.60539C15.6209 9.21487 16.2541 9.21487 16.6446 9.60539C17.0351 9.99592 17.0351 10.6291 16.6446 11.0196L12.7071 14.9571C12.3166 15.3476 11.6834 15.3476 11.2929 14.9571L7.35539 11.0196C6.96487 10.6291 6.96487 9.99592 7.35539 9.60539Z" fill="#92BF1F"/>
<path fill-rule="evenodd" clip-rule="evenodd" d="M12 2.74719C12.5523 2.74719 13 3.19491 13 3.74719V14.2472C13 14.7995 12.5523 15.2472 12 15.2472C11.4477 15.2472 11 14.7995 11 14.2472V3.74719C11 3.19491 11.4477 2.74719 12 2.74719Z" fill="#92BF1F"/>
<path fill-rule="evenodd" clip-rule="evenodd" d="M3 11.75C3.55228 11.75 4 12.1977 4 12.75V19.25H20V12.75C20 12.1977 20.4477 11.75 21 11.75C21.5523 11.75 22 12.1977 22 12.75V19.5C22 19.9641 21.8156 20.4092 21.4874 20.7374C21.1592 21.0656 20.7141 21.25 20.25 21.25H3.75C3.28587 21.25 2.84075 21.0656 2.51256 20.7374C2.18437 20.4092 2 19.9641 2 19.5V12.75C2 12.1977 2.44772 11.75 3 11.75Z" fill="#92BF1F"/>
</svg>
