<svg width="24" height="24" viewBox="0 0 24 24" fill="none" xmlns="http://www.w3.org/2000/svg">
<path fill-rule="evenodd" clip-rule="evenodd" d="M7.87125 2.12962C8.1597 1.96644 8.51025 1.95677 8.80726 2.10379L15.6051 5.46874L21.5076 2.12962C21.8172 1.95448 22.1965 1.95698 22.5038 2.13618C22.8111 2.31537 23 2.6443 23 3V17.4C23 17.7604 22.8061 18.0929 22.4924 18.2704L16.1287 21.8704C15.8403 22.0336 15.4897 22.0432 15.1927 21.8962L8.39486 18.5313L2.49238 21.8704C2.18279 22.0455 1.80347 22.043 1.49621 21.8638C1.18895 21.6846 1 21.3557 1 21V6.6C1 6.2396 1.19393 5.90708 1.50762 5.72962L7.87125 2.12962ZM8.39486 4.13126L3 7.18321V19.2854L7.87125 16.5296C8.1597 16.3664 8.51025 16.3568 8.80726 16.5038L15.6051 19.8687L21 16.8168V4.71464L16.1287 7.47038C15.8403 7.63356 15.4897 7.64323 15.1927 7.49621L8.39486 4.13126Z" fill="white"/>
<path fill-rule="evenodd" clip-rule="evenodd" d="M8 2C8.55228 2 9 2.44772 9 3V17C9 17.5523 8.55228 18 8 18C7.44772 18 7 17.5523 7 17V3C7 2.44772 7.44772 2 8 2Z" fill="white"/>
<path fill-rule="evenodd" clip-rule="evenodd" d="M16 6C16.5523 6 17 6.44772 17 7V21C17 21.5523 16.5523 22 16 22C15.4477 22 15 21.5523 15 21V7C15 6.44772 15.4477 6 16 6Z" fill="white"/>
</svg>
