<svg width="24" height="24" viewBox="0 0 24 24" fill="none" xmlns="http://www.w3.org/2000/svg">
<path d="M6.47714 22H2.33071V8.64714H6.47714V22ZM4.40143 6.82571C3.07571 6.82571 2 5.72714 2 4.40143C2 3.76453 2.25301 3.15372 2.70336 2.70336C3.15372 2.25301 3.76453 2 4.40143 2C5.03833 2 5.64914 2.25301 6.09949 2.70336C6.54985 3.15372 6.80286 3.76453 6.80286 4.40143C6.80286 5.72714 5.72714 6.82571 4.40143 6.82571ZM21.9957 22H17.8586V15.5C17.8586 13.9507 17.8271 11.9643 15.7029 11.9643C13.5471 11.9643 13.2164 13.6471 13.2164 15.3886V22H9.07429V8.64714H13.0507V10.4686H13.1086C13.6621 9.41929 15.0143 8.31214 17.0314 8.31214C21.2279 8.31214 21.9993 11.0757 21.9993 14.665V22H21.9957Z" fill="#3A3A3A"/>
</svg>
