<svg width="18" height="19" viewBox="0 0 18 19" fill="none" xmlns="http://www.w3.org/2000/svg">
<path d="M17.0184 1.21311C16.3853 0.58009 15.5437 0.23148 14.6484 0.231516L3.35159 0.231445C1.50349 0.231516 0 1.73504 0 3.583V14.8799C0 16.7279 1.50356 18.2314 3.35159 18.2314H14.6484C16.4965 18.2314 18 16.7279 18 14.8799V3.58307C18 2.68781 17.6514 1.84614 17.0184 1.21311ZM5.83119 7.87772C6.0371 7.67181 6.37098 7.67181 6.57696 7.87772L8.47266 9.77341L8.47259 4.14782C8.47259 3.85658 8.7087 3.62047 8.99993 3.62047C9.2912 3.62047 9.52727 3.85658 9.52727 4.14782L9.52734 9.77327L11.4229 7.87765C11.6288 7.67174 11.9627 7.67174 12.1687 7.87765C12.3746 8.08356 12.3746 8.41747 12.1687 8.62342L9.37287 11.4193C9.27394 11.5183 9.13982 11.5738 8.99996 11.5738C8.86015 11.5738 8.72599 11.5183 8.62713 11.4193L5.83126 8.62349C5.62525 8.41758 5.62525 8.08366 5.83119 7.87772ZM14.0837 14.8424H3.91641C3.62521 14.8424 3.38906 14.6063 3.38906 14.315C3.38906 14.0238 3.62521 13.7877 3.91641 13.7877H14.0836C14.3748 13.7877 14.611 14.0238 14.611 14.315C14.611 14.6063 14.3749 14.8424 14.0837 14.8424Z" fill="#92BF1F"/>
</svg>
