<svg width="14" height="20" viewBox="0 0 14 20" fill="none" xmlns="http://www.w3.org/2000/svg">
<path fill-rule="evenodd" clip-rule="evenodd" d="M0.00845931 8.69455C0.00845931 8.07591 0.015909 7.45726 0.0233933 6.83575L0.0233934 6.83574C0.0271878 6.52065 0.030991 6.20482 0.0338368 5.88788C0.0338368 2.48258 2.16556 -0.000244141 5.10936 -0.000244141H8.89063C11.8344 -0.000244141 13.9662 2.48258 13.9662 5.88788C13.9915 7.25196 14 8.61605 14 9.98994C14 11.3638 13.9915 12.7475 13.9662 14.1116C13.9662 17.5169 11.8344 19.9998 8.89063 19.9998H5.10936C2.16556 19.9998 0.0338368 17.5169 0.0338368 14.1018C0.0169184 12.8162 0 11.5012 0 10.1666L0.00845931 8.69455ZM8.28 17.64V17.8C8.28 18.4736 7.7168 19 7 19C6.30027 19 5.72 18.4736 5.72 17.8V17.64C5.72 16.984 6.30027 16.44 7 16.44C7.7168 16.44 8.28 16.984 8.28 17.64ZM2.01671 6.4434C2.01136 6.84738 2.00604 7.2495 2.00604 7.65162L2 8.60844C2 9.47596 2.01208 10.3307 2.02417 11.1663C2.02417 13.3862 3.54683 15 5.64955 15H8.35045C10.4532 15 11.9758 13.3862 11.9758 11.1727C11.994 10.2861 12 9.38665 12 8.49362C12 7.60059 11.994 6.71393 11.9758 5.82728C11.9758 3.61384 10.4532 2 8.35045 2H5.64955C3.54683 2 2.02417 3.61384 2.02417 5.82728C2.02214 6.0333 2.01942 6.23859 2.01671 6.4434Z" fill="#92BF1F"/>
</svg>
