<svg width="454" height="204" viewBox="0 0 454 204" fill="none" xmlns="http://www.w3.org/2000/svg">
<g clip-path="url(#clip0)">
<path d="M410.454 82.1588H396.732V129.401H410.454V82.1588Z" fill="#F2F2F2"/>
<path d="M419.516 120.514L386.143 81.0248L319.152 81.6339L278.515 121.002L279.336 121.527H279.042V203.414H419.427V121.527L419.516 120.514Z" fill="white"/>
<path d="M386.177 81.1089L344.484 129.726V203.414H419.426V120.477L386.177 81.1089Z" fill="#EFEFEF"/>
<path d="M389.871 162.663H374.566V176.118H389.871V162.663Z" fill="#3F3D56"/>
<path d="M389.871 139.374H374.566V152.616H389.871V139.374Z" fill="#3F3D56"/>
<path d="M389.871 162.663H374.566V176.118H389.871V162.663Z" fill="white"/>
<path d="M389.871 139.374H374.566V152.616H389.871V139.374Z" fill="white"/>
<path d="M321.856 159.093H306.551V172.548H321.856V159.093Z" fill="white"/>
<path d="M321.856 135.804H306.551V149.046H321.856V135.804Z" fill="white"/>
<path d="M302.171 82.1588H288.449V129.401H302.171V82.1588Z" fill="#F2F2F2"/>
<path d="M311.232 120.514L277.858 81.0248L210.868 81.6339L170.23 121.002L171.052 121.527H170.758V203.414H311.142V121.527L311.232 120.514Z" fill="white"/>
<path d="M277.894 81.1089L236.201 129.726V203.414H311.143V120.477L277.894 81.1089Z" fill="#EFEFEF"/>
<path d="M281.588 162.663H266.283V176.118H281.588V162.663Z" fill="#3F3D56"/>
<path d="M281.588 139.374H266.283V152.616H281.588V139.374Z" fill="#3F3D56"/>
<path d="M281.588 162.663H266.283V176.118H281.588V162.663Z" fill="white"/>
<path d="M281.588 139.374H266.283V152.616H281.588V139.374Z" fill="white"/>
<path d="M213.572 159.093H198.267V172.548H213.572V159.093Z" fill="white"/>
<path d="M213.572 135.804H198.267V149.046H213.572V135.804Z" fill="white"/>
<path d="M191.296 41.3875H172.96V104.515H191.296V41.3875Z" fill="white"/>
<path d="M203.404 92.6392L158.809 39.8726L69.2937 40.6862L14.9922 93.2922L16.0891 93.9936H15.6974V203.414H203.284V93.9936L203.404 92.6392Z" fill="white"/>
<path d="M158.855 39.9848L103.144 104.949V203.414H203.284V92.5907L158.855 39.9848Z" fill="#EFEFEF"/>
<path d="M163.792 148.961H143.341V166.94H163.792V148.961Z" fill="#3F3D56"/>
<path d="M163.792 117.842H143.341V135.536H163.792V117.842Z" fill="#3F3D56"/>
<path d="M163.792 148.961H143.341V166.94H163.792V148.961Z" fill="white"/>
<path d="M163.792 117.842H143.341V135.536H163.792V117.842Z" fill="white"/>
<path d="M72.9053 144.191H52.4541V162.17H72.9053V144.191Z" fill="white"/>
<path d="M72.9053 113.071H52.4541V130.765H72.9053V113.071Z" fill="white"/>
<path d="M438.572 203.01H0V203.915H438.572V203.01Z" fill="#3F3D56"/>
<path d="M69.0978 186.369C76.4097 186.369 82.3372 174.34 82.3372 159.501C82.3372 144.662 76.4097 132.633 69.0978 132.633C61.7859 132.633 55.8584 144.662 55.8584 159.501C55.8584 174.34 61.7859 186.369 69.0978 186.369Z" fill="#3F3D56"/>
<path d="M70.3207 203.48C65.0182 171.837 70.2673 140.309 70.321 139.994L71.3524 140.168C71.299 140.481 66.08 171.844 71.3527 203.309L70.3207 203.48Z" fill="#92BF1F"/>
<path d="M80.7542 153.723L68.7822 160.093L69.2757 161.01L81.2477 154.641L80.7542 153.723Z" fill="#92BF1F"/>
<path d="M56.6402 156.914L56.1465 157.831L68.117 164.204L68.6108 163.287L56.6402 156.914Z" fill="#92BF1F"/>
<path d="M37.2873 170.615C51.5886 170.615 63.182 147.087 63.182 118.064C63.182 89.0412 51.5886 65.5134 37.2873 65.5134C22.986 65.5134 11.3926 89.0412 11.3926 118.064C11.3926 147.087 22.986 170.615 37.2873 170.615Z" fill="#B0CE64"/>
<path d="M40.1714 204C29.8142 142.192 40.067 80.6097 40.1717 79.9949L41.2031 80.1687C41.0987 80.782 30.876 142.199 41.2034 203.829L40.1714 204Z" fill="#3F3D56"/>
<path d="M60.3217 107.202L36.9053 119.66L37.3988 120.578L60.8152 108.12L60.3217 107.202Z" fill="#3F3D56"/>
<path d="M12.6861 113.443L12.1924 114.36L35.6053 126.824L36.0991 125.907L12.6861 113.443Z" fill="#3F3D56"/>
<path d="M98.6165 158.347C118.187 158.347 134.051 126.151 134.051 86.4351C134.051 46.7193 118.187 14.5233 98.6165 14.5233C79.0464 14.5233 63.1816 46.7193 63.1816 86.4351C63.1816 126.151 79.0464 158.347 98.6165 158.347Z" fill="#B0CE64"/>
<path d="M102.754 204C88.5867 119.452 102.611 35.2134 102.755 34.3724L103.786 34.5462C103.643 35.3856 89.6485 119.459 103.786 203.829L102.754 204Z" fill="#3F3D56"/>
<path d="M130.228 71.7404L98.1846 88.7876L98.6781 89.7052L130.721 72.6581L130.228 71.7404Z" fill="#3F3D56"/>
<path d="M64.8609 80.2803L64.3672 81.1978L96.4061 98.2533L96.8998 97.3358L64.8609 80.2803Z" fill="#3F3D56"/>
<path d="M396.295 186.369C403.607 186.369 409.534 174.34 409.534 159.501C409.534 144.662 403.607 132.633 396.295 132.633C388.983 132.633 383.056 144.662 383.056 159.501C383.056 174.34 388.983 186.369 396.295 186.369Z" fill="#3F3D56"/>
<path d="M395.072 203.48C400.375 171.837 395.125 140.309 395.072 139.994L394.04 140.168C394.094 140.481 399.313 171.844 394.04 203.309L395.072 203.48Z" fill="#92BF1F"/>
<path d="M384.639 153.724L384.146 154.641L396.118 161.01L396.611 160.093L384.639 153.724Z" fill="#92BF1F"/>
<path d="M408.753 156.914L396.782 163.287L397.276 164.204L409.247 157.831L408.753 156.914Z" fill="#92BF1F"/>
<path d="M428.106 170.615C442.407 170.615 454 147.087 454 118.064C454 89.0412 442.407 65.5134 428.106 65.5134C413.804 65.5134 402.211 89.0412 402.211 118.064C402.211 147.087 413.804 170.615 428.106 170.615Z" fill="#B0CE64"/>
<path d="M425.221 204C435.579 142.192 425.326 80.6097 425.221 79.9949L424.19 80.1687C424.294 80.782 434.517 142.199 424.189 203.829L425.221 204Z" fill="#3F3D56"/>
<path d="M405.072 107.202L404.578 108.12L427.995 120.578L428.488 119.66L405.072 107.202Z" fill="#3F3D56"/>
<path d="M452.707 113.443L429.294 125.907L429.788 126.824L453.201 114.36L452.707 113.443Z" fill="#3F3D56"/>
<path d="M366.776 158.347C386.346 158.347 402.211 126.151 402.211 86.4351C402.211 46.7193 386.346 14.5233 366.776 14.5233C347.206 14.5233 331.341 46.7193 331.341 86.4351C331.341 126.151 347.206 158.347 366.776 158.347Z" fill="#B0CE64"/>
<path d="M362.638 204C376.806 119.452 362.781 35.2134 362.638 34.3724L361.607 34.5462C361.75 35.3856 375.744 119.459 361.606 203.829L362.638 204Z" fill="#3F3D56"/>
<path d="M335.164 71.7405L334.671 72.6581L366.714 89.7053L367.208 88.7876L335.164 71.7405Z" fill="#3F3D56"/>
<path d="M400.532 80.2804L368.493 97.3359L368.987 98.2534L401.026 81.1979L400.532 80.2804Z" fill="#3F3D56"/>
<path d="M268.254 45.9154L272.442 42.5836C269.188 42.2266 267.851 43.9915 267.304 45.3885C264.762 44.3387 261.995 45.7145 261.995 45.7145L270.375 48.7404C269.952 47.6173 269.217 46.6373 268.254 45.9154Z" fill="#3F3D56"/>
<path d="M165.885 16.5016L170.073 13.1698C166.819 12.8128 165.482 14.5777 164.935 15.9747C162.393 14.9248 159.626 16.3007 159.626 16.3007L168.006 19.3266C167.583 18.2035 166.847 17.2235 165.885 16.5016Z" fill="#3F3D56"/>
<path d="M332.86 3.37848L337.049 0.0466602C333.795 -0.310379 332.458 1.45457 331.911 2.85155C329.369 1.8017 326.602 3.17757 326.602 3.17757L334.982 6.20344C334.559 5.08034 333.823 4.10038 332.86 3.37848Z" fill="#3F3D56"/>
<path d="M341.316 197.775C340.203 197.775 339.109 198.067 338.145 198.621C337.166 197.741 335.951 197.162 334.648 196.955C333.345 196.748 332.009 196.922 330.804 197.455C329.598 197.988 328.573 198.858 327.855 199.959C327.137 201.061 326.755 202.345 326.757 203.658H347.663C347.549 202.061 346.831 200.566 345.653 199.475C344.475 198.383 342.926 197.776 341.316 197.775Z" fill="#3F3D56"/>
<path d="M128.844 197.775C127.731 197.775 126.637 198.067 125.673 198.621C124.695 197.741 123.48 197.162 122.177 196.955C120.873 196.748 119.538 196.922 118.332 197.455C117.126 197.988 116.102 198.858 115.383 199.959C114.665 201.061 114.284 202.345 114.285 203.658H135.191C135.077 202.061 134.359 200.566 133.181 199.475C132.004 198.383 130.454 197.776 128.844 197.775Z" fill="#3F3D56"/>
<path d="M237.583 197.775C236.469 197.775 235.375 198.067 234.412 198.621C233.433 197.741 232.218 197.162 230.915 196.955C229.612 196.748 228.276 196.922 227.07 197.455C225.864 197.988 224.84 198.858 224.122 199.959C223.403 201.061 223.022 202.345 223.023 203.658H243.929C243.815 202.061 243.097 200.566 241.92 199.475C240.742 198.383 239.192 197.776 237.583 197.775Z" fill="#3F3D56"/>
<path d="M214.637 182.922H154.322V184.857H163.729V203.241H165.674V184.857H202.312V203.241H204.258V184.857H214.637V182.922Z" fill="#3F3D56"/>
<path d="M214.756 177.132H154.441V179.067H214.756V177.132Z" fill="#3F3D56"/>
<path d="M214.756 172.294H154.441V174.229H214.756V172.294Z" fill="#3F3D56"/>
<path d="M214.756 167.456H154.441V169.391H214.756V167.456Z" fill="#3F3D56"/>
<path d="M308.817 182.922H248.502V184.857H257.909V203.241H259.854V184.857H296.492V203.241H298.438V184.857H308.817V182.922Z" fill="#3F3D56"/>
<path d="M308.936 177.132H248.621V179.067H308.936V177.132Z" fill="#3F3D56"/>
<path d="M308.936 172.294H248.621V174.229H308.936V172.294Z" fill="#3F3D56"/>
<path d="M308.936 167.456H248.621V169.391H308.936V167.456Z" fill="#3F3D56"/>
</g>
<defs>
<clipPath id="clip0">
<rect width="454" height="204" fill="white"/>
</clipPath>
</defs>
</svg>
