<svg width="204" height="40" viewBox="0 0 204 40" fill="none" xmlns="http://www.w3.org/2000/svg">
<rect y="4" width="196" height="32" rx="4" fill="#EBF2DA"/>
<circle cx="184" cy="20" r="20" fill="#92BF1F"/>
<path d="M189 23.4C188.367 23.4 187.8 23.65 187.367 24.0416L181.425 20.5833C181.467 20.3916 181.5 20.2 181.5 20C181.5 19.8 181.467 19.6083 181.425 19.4166L187.3 15.9916C187.75 16.4083 188.342 16.6666 189 16.6666C190.383 16.6666 191.5 15.55 191.5 14.1666C191.5 12.7833 190.383 11.6666 189 11.6666C187.617 11.6666 186.5 12.7833 186.5 14.1666C186.5 14.3666 186.533 14.5583 186.575 14.75L180.7 18.175C180.25 17.7583 179.658 17.5 179 17.5C177.617 17.5 176.5 18.6166 176.5 20C176.5 21.3833 177.617 22.5 179 22.5C179.658 22.5 180.25 22.2416 180.7 21.825L186.633 25.2916C186.592 25.4666 186.567 25.65 186.567 25.8333C186.567 27.175 187.658 28.2666 189 28.2666C190.342 28.2666 191.433 27.175 191.433 25.8333C191.433 24.4916 190.342 23.4 189 23.4Z" fill="white"/>
<path d="M17.4815 30V20.6154H15V17.2365H17.4815V14.3505C17.4815 12.0826 18.9473 10 22.3249 10C23.6924 10 24.7036 10.1311 24.7036 10.1311L24.6239 13.2864C24.6239 13.2864 23.5926 13.2764 22.4673 13.2764C21.2493 13.2764 21.0541 13.8377 21.0541 14.7693V17.2365H24.7207L24.5612 20.6154H21.0541V30H17.4815Z" fill="#3A3A3A"/>
<path d="M104.805 16.2757C105.401 16.2757 105.885 15.7922 105.885 15.1957C105.885 14.5993 105.401 14.1157 104.805 14.1157C104.208 14.1157 103.725 14.5993 103.725 15.1957C103.725 15.7922 104.208 16.2757 104.805 16.2757Z" fill="#3A3A3A"/>
<path d="M99.9999 15.3784C99.0859 15.3784 98.1924 15.6495 97.4324 16.1573C96.6724 16.6651 96.08 17.3869 95.7302 18.2313C95.3804 19.0758 95.2889 20.005 95.4672 20.9015C95.6455 21.798 96.0857 22.6215 96.732 23.2678C97.3784 23.9141 98.2018 24.3543 99.0983 24.5326C99.9948 24.7109 100.924 24.6194 101.768 24.2696C102.613 23.9198 103.335 23.3275 103.843 22.5675C104.35 21.8075 104.621 20.914 104.621 19.9999C104.621 18.7742 104.135 17.5987 103.268 16.732C102.401 15.8653 101.226 15.3784 99.9999 15.3784ZM99.9999 22.9999C99.4066 22.9999 98.8266 22.824 98.3332 22.4943C97.8399 22.1647 97.4553 21.6961 97.2283 21.148C97.0012 20.5998 96.9418 19.9966 97.0576 19.4146C97.1733 18.8327 97.459 18.2982 97.8786 17.8786C98.2982 17.459 98.8327 17.1733 99.4146 17.0576C99.9966 16.9418 100.6 17.0012 101.148 17.2283C101.696 17.4553 102.165 17.8399 102.494 18.3332C102.824 18.8266 103 19.4066 103 19.9999C103 20.7956 102.684 21.5586 102.121 22.1212C101.559 22.6838 100.796 22.9999 99.9999 22.9999Z" fill="#3A3A3A"/>
<path d="M100 12.6215C102.403 12.6215 102.688 12.6305 103.637 12.674C104.207 12.6808 104.773 12.7855 105.308 12.9837C105.696 13.1335 106.049 13.3629 106.343 13.6572C106.637 13.9514 106.866 14.304 107.016 14.6923C107.214 15.2274 107.319 15.7926 107.326 16.3632C107.369 17.312 107.378 17.597 107.378 20.0007C107.378 22.4045 107.369 22.688 107.326 23.6368C107.319 24.2074 107.214 24.7726 107.016 25.3077C106.866 25.696 106.637 26.0486 106.343 26.3428C106.049 26.6371 105.696 26.8665 105.308 27.0163C104.773 27.2145 104.207 27.3192 103.637 27.326C102.688 27.3695 102.403 27.3785 100 27.3785C97.597 27.3785 97.312 27.3695 96.3632 27.326C95.7926 27.3192 95.2274 27.2145 94.6923 27.0163C94.304 26.8665 93.9514 26.6371 93.6572 26.3428C93.3629 26.0486 93.1335 25.696 92.9837 25.3077C92.7855 24.7726 92.6808 24.2074 92.674 23.6368C92.6305 22.688 92.6215 22.403 92.6215 20C92.6215 17.597 92.6305 17.312 92.674 16.3632C92.6808 15.7926 92.7855 15.2274 92.9837 14.6923C93.1335 14.304 93.3629 13.9514 93.6572 13.6572C93.9514 13.3629 94.304 13.1335 94.6923 12.9837C95.2274 12.7855 95.7926 12.6808 96.3632 12.674C97.312 12.6305 97.597 12.6215 100 12.6215ZM100 11C97.5557 11 97.249 11.0105 96.289 11.054C95.5426 11.0691 94.8041 11.2106 94.105 11.4725C93.507 11.7037 92.964 12.0573 92.5107 12.5107C92.0573 12.964 91.7037 13.507 91.4725 14.105C91.2105 14.8044 91.069 15.5431 91.054 16.2898C91.0105 17.2498 91 17.555 91 20C91 22.445 91.0105 22.751 91.054 23.711C91.0691 24.4574 91.2106 25.1959 91.4725 25.895C91.7037 26.493 92.0573 27.036 92.5107 27.4893C92.964 27.9427 93.507 28.2963 94.105 28.5275C94.8044 28.7895 95.5431 28.931 96.2898 28.946C97.2498 28.9895 97.5557 29 100 29C102.444 29 102.751 28.9895 103.711 28.946C104.458 28.931 105.196 28.7895 105.896 28.5275C106.494 28.2963 107.037 27.9427 107.49 27.4893C107.943 27.036 108.297 26.493 108.528 25.895C108.79 25.1956 108.931 24.4569 108.946 23.7103C108.99 22.7503 109 22.445 109 20C109 17.555 108.99 17.249 108.946 16.289C108.931 15.5426 108.789 14.8041 108.528 14.105C108.296 13.507 107.943 12.964 107.489 12.5107C107.036 12.0573 106.493 11.7037 105.895 11.4725C105.196 11.2107 104.457 11.0695 103.71 11.0547C102.75 11.0097 102.445 11 100 11Z" fill="#3A3A3A"/>
<path d="M134.477 30H130.331V16.6471H134.477V30ZM132.401 14.8257C131.076 14.8257 130 13.7271 130 12.4014C130 11.7645 130.253 11.1537 130.703 10.7034C131.154 10.253 131.765 10 132.401 10C133.038 10 133.649 10.253 134.099 10.7034C134.55 11.1537 134.803 11.7645 134.803 12.4014C134.803 13.7271 133.727 14.8257 132.401 14.8257ZM149.996 30H145.859V23.5C145.859 21.9507 145.827 19.9643 143.703 19.9643C141.547 19.9643 141.216 21.6471 141.216 23.3886V30H137.074V16.6471H141.051V18.4686H141.109C141.662 17.4193 143.014 16.3121 145.031 16.3121C149.228 16.3121 149.999 19.0757 149.999 22.665V30H149.996Z" fill="#3A3A3A"/>
<path d="M70 13.9301C69.2645 14.2473 68.4641 14.4757 67.6397 14.5646C68.4956 14.0561 69.1366 13.2527 69.4424 12.3053C68.6392 12.7831 67.7593 13.1181 66.8417 13.2955C66.4582 12.8855 65.9944 12.5589 65.4792 12.336C64.9639 12.1132 64.4083 11.9988 63.8469 12C61.5755 12 59.7488 13.8411 59.7488 16.1005C59.7488 16.4177 59.7873 16.735 59.8498 17.0403C56.4487 16.8624 53.4155 15.2376 51.3989 12.7499C51.0314 13.3775 50.8389 14.0921 50.8412 14.8194C50.8412 16.2423 51.5647 17.4969 52.6679 18.2348C52.0178 18.2092 51.3829 18.0305 50.8148 17.7133V17.7637C50.8148 19.7563 52.2233 21.4075 54.1005 21.7873C53.748 21.8788 53.3854 21.9257 53.0213 21.9267C52.7545 21.9267 52.5021 21.9003 52.2473 21.8642C52.7665 23.489 54.2783 24.6692 56.0786 24.7076C54.6701 25.8109 52.9059 26.4598 50.9903 26.4598C50.6466 26.4598 50.3293 26.4478 50 26.4093C51.8171 27.5751 53.9731 28.2481 56.2949 28.2481C63.8325 28.2481 67.957 22.0036 67.957 16.5836C67.957 16.4057 67.957 16.2279 67.945 16.05C68.7429 15.4659 69.4424 14.7425 70 13.9301Z" fill="#3A3A3A"/>
</svg>
