<svg width="29" height="30" viewBox="0 0 29 30" fill="none" xmlns="http://www.w3.org/2000/svg">
<g clip-path="url(#clip0)">
<path d="M4.15903 8.20819C5.17214 4.93427 7.83545 2.27016 11.1094 1.25694C14.5745 0.183574 18.2613 0.780134 21.0753 2.85363C23.8687 4.91281 25.5361 8.21145 25.5361 11.6772C25.5361 14.0681 24.7798 16.3396 23.3493 18.2458L14.5801 29.4909L5.81088 18.2449C3.67015 15.3907 3.06769 11.7324 4.15903 8.20819ZM14.5801 17.5766C17.8327 17.5766 20.4795 14.9298 20.4795 11.6772C20.4795 8.4246 17.8327 5.7778 14.5801 5.7778C11.3275 5.7778 8.68073 8.4246 8.68073 11.6772C8.68073 14.9298 11.3275 17.5766 14.5801 17.5766Z" fill="#4BCC47"/>
<path d="M14.5801 7.47461C16.9035 7.47461 18.7939 9.35382 18.7939 11.6772C18.7939 14.0006 16.9035 15.8911 14.5801 15.8911C12.2567 15.8911 10.3663 14.0006 10.3663 11.6772C10.3662 9.35382 12.2567 7.47461 14.5801 7.47461Z" fill="#4BCC47"/>
<circle cx="14.5" cy="11.3453" r="7.5" fill="#4BCC47"/>
<path d="M18.8011 7.62264C18.7645 7.5302 18.6838 7.46242 18.5864 7.44229C18.4889 7.42211 18.3881 7.45237 18.3178 7.52268L16.7944 9.046L15.9755 8.86991L15.7994 8.05092L17.3227 6.52758C17.393 6.45727 17.4232 6.35629 17.4031 6.25893C17.383 6.16155 17.3152 6.08086 17.2227 6.04418C16.1769 5.62946 14.9872 5.87537 14.1918 6.67072C13.8089 7.05362 13.5459 7.53453 13.4314 8.06147C13.3334 8.51229 13.3472 8.97809 13.4703 9.41975L9.40498 13.4851C9.14381 13.7462 9 14.0934 9 14.4627C9 14.832 9.14381 15.1792 9.40496 15.4404C9.66611 15.7015 10.0133 15.8453 10.3826 15.8453C10.7519 15.8453 11.0991 15.7015 11.3603 15.4404L15.4256 11.3751C15.8673 11.4981 16.3331 11.5119 16.7839 11.4139C17.3108 11.2994 17.7917 11.0365 18.1746 10.6536C18.97 9.85823 19.2159 8.66848 18.8011 7.62264Z" fill="white"/>
</g>
<defs>
<clipPath id="clip0">
<rect width="28.758" height="28.758" fill="white" transform="matrix(-1 0 0 1 28.96 0.73291)"/>
</clipPath>
</defs>
</svg>
