<svg width="40" height="40" viewBox="0 0 40 40" fill="none" xmlns="http://www.w3.org/2000/svg">
<circle cx="20" cy="20" r="20" fill="#92BF1F"/>
<path d="M25 23.4C24.3667 23.4 23.8 23.65 23.3667 24.0416L17.425 20.5833C17.4667 20.3916 17.5 20.2 17.5 20C17.5 19.8 17.4667 19.6083 17.425 19.4166L23.3 15.9916C23.75 16.4083 24.3417 16.6666 25 16.6666C26.3833 16.6666 27.5 15.55 27.5 14.1666C27.5 12.7833 26.3833 11.6666 25 11.6666C23.6167 11.6666 22.5 12.7833 22.5 14.1666C22.5 14.3666 22.5333 14.5583 22.575 14.75L16.7 18.175C16.25 17.7583 15.6583 17.5 15 17.5C13.6167 17.5 12.5 18.6166 12.5 20C12.5 21.3833 13.6167 22.5 15 22.5C15.6583 22.5 16.25 22.2416 16.7 21.825L22.6333 25.2916C22.5917 25.4666 22.5667 25.65 22.5667 25.8333C22.5667 27.175 23.6583 28.2666 25 28.2666C26.3417 28.2666 27.4333 27.175 27.4333 25.8333C27.4333 24.4916 26.3417 23.4 25 23.4Z" fill="white"/>
</svg>
